<svg width="39" height="40" viewBox="0 0 39 40" fill="none" xmlns="http://www.w3.org/2000/svg">
<ellipse cx="19.6383" cy="20" rx="19.1489" ry="20" fill="#D9DBFE"/>
<path d="M27.4253 10.986H26.4647V8.98752H24.5434V10.986H14.9371V8.98752H13.0158V10.986H12.0552C10.9985 10.986 10.1339 11.8854 10.1339 12.9846V28.9728C10.1339 30.072 10.9985 30.9714 12.0552 30.9714H27.4253C28.482 30.9714 29.3465 30.072 29.3465 28.9728V12.9846C29.3465 11.8854 28.482 10.986 27.4253 10.986ZM27.4253 28.9728H12.0552V15.9824H27.4253V28.9728Z" fill="#262E96"/>
<path d="M19.7402 22.6373C21.1448 22.6373 22.2889 21.497 22.2889 20.0971C22.2889 18.6971 21.1448 17.5569 19.7402 17.5569C18.3356 17.5569 17.1916 18.6971 17.1916 20.0971C17.1916 21.497 18.3356 22.6373 19.7402 22.6373ZM24.8376 27.1532C24.8376 25.4598 21.4393 24.613 19.7402 24.613C18.0411 24.613 14.6429 25.4598 14.6429 27.1532V28H24.8376V27.1532Z" fill="#262E96"/>
</svg>
