<svg width="20" height="21" viewBox="0 0 20 21" fill="none" xmlns="http://www.w3.org/2000/svg">
<path d="M10.3245 0.986786C5.0218 0.986786 0.71814 5.46349 0.71814 10.9794C0.71814 16.4954 5.0218 20.9721 10.3245 20.9721C15.6272 20.9721 19.9309 16.4954 19.9309 10.9794C19.9309 5.46349 15.6272 0.986786 10.3245 0.986786ZM10.3245 3.98458C11.9192 3.98458 13.2064 5.3236 13.2064 6.98238C13.2064 8.64116 11.9192 9.98017 10.3245 9.98017C8.72986 9.98017 7.44261 8.64116 7.44261 6.98238C7.44261 5.3236 8.72986 3.98458 10.3245 3.98458ZM10.3245 18.1742C7.92293 18.1742 5.79992 16.8951 4.56069 14.9565C4.58951 12.968 8.40325 11.8788 10.3245 11.8788C12.2362 11.8788 16.0595 12.968 16.0884 14.9565C14.8491 16.8951 12.7261 18.1742 10.3245 18.1742Z" fill="white" fill-opacity="0.74"/>
</svg>
